<svg xmlns="http://www.w3.org/2000/svg" xmlns:xlink="http://www.w3.org/1999/xlink" width="300" zoomAndPan="magnify" viewBox="0 0 224.87999 70.499998" height="94" preserveAspectRatio="xMidYMid meet" version="1.0"><defs><g/><clipPath id="1daf7f978f"><path d="M 0.730469 9 L 23 9 L 23 70.003906 L 0.730469 70.003906 Z M 0.730469 9 " clip-rule="nonzero"/></clipPath><clipPath id="63c27bc52c"><path d="M 0.730469 51 L 73 51 L 73 70.003906 L 0.730469 70.003906 Z M 0.730469 51 " clip-rule="nonzero"/></clipPath><clipPath id="2aa4df4cb9"><path d="M 0.730469 0 L 48 0 L 48 44 L 0.730469 44 Z M 0.730469 0 " clip-rule="nonzero"/></clipPath></defs><g fill="#fa4e1e" fill-opacity="1"><g transform="translate(34.355652, 62.418074)"><g><path d="M 20.421875 0 L 14.703125 0 L 13.71875 -6.546875 L 6.75 -6.546875 L 5.78125 0 L 0.5625 0 L 6.34375 -36.09375 L 14.640625 -36.09375 Z M 7.484375 -11.453125 L 12.9375 -11.453125 L 10.203125 -29.703125 Z M 7.484375 -11.453125 "/></g></g></g><g fill="#fa4e1e" fill-opacity="1"><g transform="translate(58.437279, 62.418074)"><g><path d="M 2.0625 -36.09375 L 7.734375 -36.09375 L 7.734375 0 L 2.0625 0 Z M 2.0625 -36.09375 "/></g></g></g><g fill="#fa4e1e" fill-opacity="1"><g transform="translate(71.329083, 62.418074)"><g><path d="M 13.921875 0 C 13.847656 -0.238281 13.773438 -0.460938 13.703125 -0.671875 C 13.640625 -0.878906 13.582031 -1.132812 13.53125 -1.4375 C 13.476562 -1.75 13.441406 -2.144531 13.421875 -2.625 C 13.410156 -3.113281 13.40625 -3.71875 13.40625 -4.4375 L 13.40625 -10.109375 C 13.40625 -11.796875 13.113281 -12.984375 12.53125 -13.671875 C 11.945312 -14.359375 11 -14.703125 9.6875 -14.703125 L 7.734375 -14.703125 L 7.734375 0 L 2.0625 0 L 2.0625 -36.09375 L 10.625 -36.09375 C 13.582031 -36.09375 15.722656 -35.40625 17.046875 -34.03125 C 18.367188 -32.65625 19.03125 -30.578125 19.03125 -27.796875 L 19.03125 -24.953125 C 19.03125 -21.242188 17.789062 -18.804688 15.3125 -17.640625 C 16.757812 -17.054688 17.75 -16.097656 18.28125 -14.765625 C 18.8125 -13.441406 19.078125 -11.835938 19.078125 -9.953125 L 19.078125 -4.390625 C 19.078125 -3.492188 19.109375 -2.707031 19.171875 -2.03125 C 19.242188 -1.363281 19.421875 -0.6875 19.703125 0 Z M 7.734375 -30.9375 L 7.734375 -19.859375 L 9.953125 -19.859375 C 11.015625 -19.859375 11.847656 -20.128906 12.453125 -20.671875 C 13.054688 -21.222656 13.359375 -22.222656 13.359375 -23.671875 L 13.359375 -27.21875 C 13.359375 -28.53125 13.125 -29.476562 12.65625 -30.0625 C 12.195312 -30.644531 11.46875 -30.9375 10.46875 -30.9375 Z M 7.734375 -30.9375 "/></g></g></g><g fill="#fa4e1e" fill-opacity="1"><g transform="translate(95.152874, 62.418074)"><g><path d="M 7.734375 0 L 2.0625 0 L 2.0625 -36.09375 L 7.734375 -36.09375 L 7.734375 -20.625 L 14.1875 -20.625 L 14.1875 -36.09375 L 19.953125 -36.09375 L 19.953125 0 L 14.1875 0 L 14.1875 -15.46875 L 7.734375 -15.46875 Z M 7.734375 0 "/></g></g></g><g fill="#fa4e1e" fill-opacity="1"><g transform="translate(120.26582, 62.418074)"><g><path d="M 7.265625 -8.296875 C 7.265625 -6.992188 7.53125 -6.078125 8.0625 -5.546875 C 8.601562 -5.015625 9.316406 -4.75 10.203125 -4.75 C 11.097656 -4.75 11.8125 -5.015625 12.34375 -5.546875 C 12.882812 -6.078125 13.15625 -6.992188 13.15625 -8.296875 L 13.15625 -27.796875 C 13.15625 -29.097656 12.882812 -30.015625 12.34375 -30.546875 C 11.8125 -31.078125 11.097656 -31.34375 10.203125 -31.34375 C 9.316406 -31.34375 8.601562 -31.078125 8.0625 -30.546875 C 7.53125 -30.015625 7.265625 -29.097656 7.265625 -27.796875 Z M 1.59375 -27.4375 C 1.59375 -30.351562 2.332031 -32.59375 3.8125 -34.15625 C 5.289062 -35.71875 7.421875 -36.5 10.203125 -36.5 C 12.992188 -36.5 15.128906 -35.71875 16.609375 -34.15625 C 18.085938 -32.59375 18.828125 -30.351562 18.828125 -27.4375 L 18.828125 -8.65625 C 18.828125 -5.738281 18.085938 -3.5 16.609375 -1.9375 C 15.128906 -0.375 12.992188 0.40625 10.203125 0.40625 C 7.421875 0.40625 5.289062 -0.375 3.8125 -1.9375 C 2.332031 -3.5 1.59375 -5.738281 1.59375 -8.65625 Z M 1.59375 -27.4375 "/></g></g></g><g fill="#fa4e1e" fill-opacity="1"><g transform="translate(143.78022, 62.418074)"><g><path d="M 7.484375 -36.09375 L 7.484375 -8.25 C 7.484375 -6.945312 7.75 -6.035156 8.28125 -5.515625 C 8.8125 -5.003906 9.523438 -4.75 10.421875 -4.75 C 11.304688 -4.75 12.015625 -5.003906 12.546875 -5.515625 C 13.085938 -6.035156 13.359375 -6.945312 13.359375 -8.25 L 13.359375 -36.09375 L 18.71875 -36.09375 L 18.71875 -8.609375 C 18.71875 -5.691406 18.003906 -3.445312 16.578125 -1.875 C 15.148438 -0.3125 13.046875 0.46875 10.265625 0.46875 C 7.472656 0.46875 5.363281 -0.3125 3.9375 -1.875 C 2.519531 -3.445312 1.8125 -5.691406 1.8125 -8.609375 L 1.8125 -36.09375 Z M 7.484375 -36.09375 "/></g></g></g><g fill="#fa4e1e" fill-opacity="1"><g transform="translate(167.397756, 62.418074)"><g><path d="M 1.34375 -27.4375 C 1.34375 -30.351562 2.035156 -32.59375 3.421875 -34.15625 C 4.816406 -35.71875 6.90625 -36.5 9.6875 -36.5 C 12.476562 -36.5 14.566406 -35.71875 15.953125 -34.15625 C 17.347656 -32.59375 18.046875 -30.351562 18.046875 -27.4375 L 18.046875 -26.296875 L 12.6875 -26.296875 L 12.6875 -27.796875 C 12.6875 -29.097656 12.4375 -30.015625 11.9375 -30.546875 C 11.4375 -31.078125 10.738281 -31.34375 9.84375 -31.34375 C 8.957031 -31.34375 8.265625 -31.078125 7.765625 -30.546875 C 7.265625 -30.015625 7.015625 -29.097656 7.015625 -27.796875 C 7.015625 -26.554688 7.285156 -25.460938 7.828125 -24.515625 C 8.378906 -23.566406 9.066406 -22.671875 9.890625 -21.828125 C 10.722656 -20.992188 11.609375 -20.15625 12.546875 -19.3125 C 13.492188 -18.46875 14.378906 -17.546875 15.203125 -16.546875 C 16.035156 -15.554688 16.722656 -14.421875 17.265625 -13.140625 C 17.816406 -11.867188 18.09375 -10.375 18.09375 -8.65625 C 18.09375 -5.738281 17.378906 -3.5 15.953125 -1.9375 C 14.523438 -0.375 12.421875 0.40625 9.640625 0.40625 C 6.859375 0.40625 4.753906 -0.375 3.328125 -1.9375 C 1.898438 -3.5 1.1875 -5.738281 1.1875 -8.65625 L 1.1875 -10.875 L 6.546875 -10.875 L 6.546875 -8.296875 C 6.546875 -6.992188 6.8125 -6.082031 7.34375 -5.5625 C 7.875 -5.050781 8.585938 -4.796875 9.484375 -4.796875 C 10.378906 -4.796875 11.09375 -5.050781 11.625 -5.5625 C 12.15625 -6.082031 12.421875 -6.992188 12.421875 -8.296875 C 12.421875 -9.535156 12.144531 -10.628906 11.59375 -11.578125 C 11.050781 -12.523438 10.363281 -13.414062 9.53125 -14.25 C 8.707031 -15.09375 7.820312 -15.9375 6.875 -16.78125 C 5.9375 -17.625 5.050781 -18.539062 4.21875 -19.53125 C 3.394531 -20.53125 2.707031 -21.664062 2.15625 -22.9375 C 1.613281 -24.21875 1.34375 -25.71875 1.34375 -27.4375 Z M 1.34375 -27.4375 "/></g></g></g><g fill="#fa4e1e" fill-opacity="1"><g transform="translate(189.777712, 62.418074)"><g><path d="M 7.734375 -20.890625 L 15.515625 -20.890625 L 15.515625 -15.734375 L 7.734375 -15.734375 L 7.734375 -5.15625 L 17.53125 -5.15625 L 17.53125 0 L 2.0625 0 L 2.0625 -36.09375 L 17.53125 -36.09375 L 17.53125 -30.9375 L 7.734375 -30.9375 Z M 7.734375 -20.890625 "/></g></g></g><g clip-path="url(#1daf7f978f)"><path stroke-linecap="butt" transform="matrix(-0.00581673, -0.58727, 0.58727, -0.00581673, 3.927217, 69.227641)" fill="none" stroke-linejoin="miter" d="M -0.00295527 2.498506 L 73.589668 2.5024 " stroke="#fa4e1e" stroke-width="5" stroke-opacity="1" stroke-miterlimit="4"/></g><g clip-path="url(#63c27bc52c)"><path stroke-linecap="butt" transform="matrix(-0.587293, -0.00258112, 0.00258112, -0.587293, 56.058532, 70.003516)" fill="none" stroke-linejoin="miter" d="M -0.00242 2.500228 L 88.625903 2.503138 " stroke="#fa4e1e" stroke-width="5" stroke-opacity="1" stroke-miterlimit="4"/></g><g clip-path="url(#2aa4df4cb9)"><path stroke-linecap="butt" transform="matrix(0.415283, -0.415283, 0.415283, 0.415283, 3.510176, 25.847956)" fill="none" stroke-linejoin="miter" d="M -0.00248388 2.498853 L 62.248013 2.498853 " stroke="#fa4e1e" stroke-width="5" stroke-opacity="1" stroke-miterlimit="4"/></g><path stroke-linecap="butt" transform="matrix(0.415283, 0.415283, -0.415283, 0.415283, 29.700048, 0.00610699)" fill="none" stroke-linejoin="miter" d="M -0.00364834 2.500409 L 62.237442 2.500409 " stroke="#fa4e1e" stroke-width="5" stroke-opacity="1" stroke-miterlimit="4"/></svg>